<svg xmlns="http://www.w3.org/2000/svg" viewBox="0 0 400 300"><rect width="300" height="20" x="50" y="200" fill="#efc187" stroke="#000" stroke-width="2"/><text x="200" y="240" font-family="serif" font-size="14" text-anchor="middle">Surface</text><circle cx="80" cy="120" r="8" fill="#4169E1" stroke="#000" stroke-width="1"/><circle cx="150" cy="80" r="8" fill="#4169E1" stroke="#000" stroke-width="1"/><circle cx="220" cy="140" r="8" fill="#4169E1" stroke="#000" stroke-width="1"/><circle cx="290" cy="100" r="8" fill="#4169E1" stroke="#000" stroke-width="1"/><circle cx="320" cy="160" r="8" fill="#4169E1" stroke="#000" stroke-width="1"/><circle cx="110" cy="50" r="8" fill="#4169E1" stroke="#000" stroke-width="1"/><circle cx="260" cy="60" r="8" fill="#4169E1" stroke="#000" stroke-width="1"/><circle cx="180" cy="170" r="8" fill="#4169E1" stroke="#000" stroke-width="1"/><defs><marker id="arrowhead" markerHeight="6" markerWidth="8" orient="auto" refX="7" refY="2"><polygon fill="red" points="0 0 8 2 0 4"/></marker></defs><line x1="80" x2="80" y1="128" y2="170" stroke="red" stroke-width="2" marker-end="url(#arrowhead)"/><line x1="150" x2="150" y1="88" y2="130" stroke="red" stroke-width="2" marker-end="url(#arrowhead)"/><line x1="220" x2="220" y1="148" y2="185" stroke="red" stroke-width="2" marker-end="url(#arrowhead)"/><line x1="290" x2="290" y1="108" y2="150" stroke="red" stroke-width="2" marker-end="url(#arrowhead)"/><line x1="180" x2="180" y1="178" y2="195" stroke="red" stroke-width="2" marker-end="url(#arrowhead)"/><rect width="120" height="20" x="140" y="200" fill="none" stroke="#ff505f" stroke-dasharray="5 5" stroke-width="3"/><text x="200" y="270" fill="#ff505f" font-family="serif" font-size="12" text-anchor="middle">Surface Element dA</text></svg>