<svg xmlns="http://www.w3.org/2000/svg" viewBox="0 0 500 400"><rect width="200" height="150" x="150" y="150" fill="#E6F3FF" stroke="#000" stroke-width="3"/><defs><marker id="arrowright" markerHeight="6" markerWidth="8" orient="auto" refX="7" refY="2"><polygon fill="red" points="0 0 8 2 0 4"/></marker></defs><line x1="70" x2="140" y1="180" y2="180" stroke="red" stroke-width="2.5" marker-end="url(#arrowright)"/><line x1="70" x2="140" y1="225" y2="225" stroke="red" stroke-width="2.5" marker-end="url(#arrowright)"/><line x1="70" x2="140" y1="270" y2="270" stroke="red" stroke-width="2.5" marker-end="url(#arrowright)"/><text x="55" y="175" fill="red" font-family="serif" font-size="15" text-anchor="end">$p(x_1&apos;)$</text><line x1="430" x2="360" y1="180" y2="180" stroke="red" stroke-width="2.5" marker-end="url(#arrowright)"/><line x1="430" x2="360" y1="225" y2="225" stroke="red" stroke-width="2.5" marker-end="url(#arrowright)"/><line x1="430" x2="360" y1="270" y2="270" stroke="red" stroke-width="2.5" marker-end="url(#arrowright)"/><text x="445" y="175" fill="red" font-family="serif" font-size="15" text-anchor="start">$p(x_1&apos; + \Delta x_1)$</text><line x1="150" x2="350" y1="320" y2="320" stroke="#000" stroke-width="2"/><line x1="150" x2="150" y1="315" y2="325" stroke="#000" stroke-width="2"/><line x1="350" x2="350" y1="315" y2="325" stroke="#000" stroke-width="2"/><text x="250" y="340" font-family="serif" font-size="15" text-anchor="middle">$\Delta x_1$</text><defs><marker id="axisarrow" markerHeight="6" markerWidth="8" orient="auto" refX="7" refY="2"><polygon fill="#000" points="0 0 8 2 0 4"/></marker></defs><line x1="50" x2="120" y1="360" y2="360" stroke="#000" stroke-width="2" marker-end="url(#axisarrow)"/><text x="130" y="365" font-family="serif" font-size="15" font-style="italic">$x_1$</text><line x1="50" x2="50" y1="360" y2="304" stroke="#000" stroke-width="2" marker-end="url(#axisarrow)"/><text x="55" y="294" font-family="serif" font-size="15" font-style="italic">$x_3$</text></svg>