<svg xmlns="http://www.w3.org/2000/svg" viewBox="0 0 500 400"><line x1="300" x2="300" y1="250" y2="100" stroke="#000" stroke-dasharray="5 5" stroke-width="2"/><line x1="300" x2="450" y1="100" y2="100" stroke="#000" stroke-width="2"/><line x1="300" x2="200" y1="100" y2="140" stroke="#000" stroke-width="2"/><line x1="200" x2="350" y1="290" y2="290" stroke="#000" stroke-width="2"/><line x1="200" x2="200" y1="290" y2="140" stroke="#000" stroke-width="2"/><line x1="350" x2="350" y1="290" y2="140" stroke="#000" stroke-width="2"/><line x1="200" x2="350" y1="140" y2="140" stroke="#000" stroke-width="2"/><line x1="350" x2="450" y1="290" y2="250" stroke="#000" stroke-width="2"/><line x1="350" x2="450" y1="140" y2="100" stroke="#000" stroke-width="2"/><line x1="450" x2="450" y1="250" y2="100" stroke="#000" stroke-width="2"/><line x1="300" x2="450" y1="250" y2="250" stroke="#000" stroke-dasharray="5 5" stroke-width="2"/><line x1="300" x2="200" y1="250" y2="290" stroke="#000" stroke-dasharray="5 5" stroke-width="2"/><circle cx="300" cy="250" r="5" fill="red"/><text x="280" y="270" font-family="serif" font-size="16" font-weight="bold">$\mathbf{x}&apos;$</text><line x1="200" x2="350" y1="310" y2="310" stroke="green" stroke-width="2"/><line x1="200" x2="200" y1="305" y2="315" stroke="green" stroke-width="2"/><line x1="350" x2="350" y1="305" y2="315" stroke="green" stroke-width="2"/><text x="275" y="330" font-family="serif" font-size="16" text-anchor="middle">$\Delta x_2$</text><line x1="180" x2="180" y1="290" y2="140" stroke="maroon" stroke-width="2"/><line x1="175" x2="185" y1="290" y2="290" stroke="maroon" stroke-width="2"/><line x1="175" x2="185" y1="140" y2="140" stroke="maroon" stroke-width="2"/><text x="160" y="215" font-family="serif" font-size="16" text-anchor="middle">$\Delta x_3$</text><line x1="200" x2="300" y1="130" y2="90" stroke="#00F" stroke-width="2"/><line x1="203" x2="197" y1="125" y2="135" stroke="#00F" stroke-width="2"/><line x1="303" x2="297" y1="85" y2="95" stroke="#00F" stroke-width="2"/><text x="250" y="100" font-family="serif" font-size="16" text-anchor="middle">$\Delta x_1$</text><defs><marker id="arrowblack" markerHeight="6" markerWidth="8" orient="auto" refX="7" refY="2"><polygon fill="#000" points="0 0 8 2 0 4"/></marker></defs><line x1="50" x2="110" y1="360" y2="360" stroke="#000" stroke-width="2" marker-end="url(#arrowblack)"/><text x="120" y="365" font-family="serif" font-size="16" font-style="italic">$x_2$</text><line x1="50" x2="50" y1="360" y2="304" stroke="#000" stroke-width="2" marker-end="url(#arrowblack)"/><text x="45" y="294" font-family="serif" font-size="16" font-style="italic">$x_3$</text><line x1="50" x2="11.5" y1="360" y2="379.25" stroke="#000" stroke-width="2" marker-end="url(#arrowblack)"/><text x="1.5" y="395" font-family="serif" font-size="16" font-style="italic">$x_1$</text></svg>