<svg xmlns="http://www.w3.org/2000/svg" viewBox="0 0 450 550"><text x="225" y="30" fill="#333" font-size="18" font-weight="bold" text-anchor="middle">GPU Thread Hierarchy</text><text x="225" y="65" fill="#4A90E2" font-size="16" font-weight="bold" text-anchor="middle">Grid</text><rect width="390" height="440" x="30" y="80" fill="none" stroke="#4A90E2" stroke-dasharray="10 5" stroke-width="3" rx="8"/><g id="block0"><rect width="160" height="120" x="50" y="100" fill="#E8F4FD" stroke="#2E5C8A" stroke-width="2" rx="5"/><text x="130" y="125" fill="#2E5C8A" font-size="14" font-weight="bold" text-anchor="middle">Block (0,0)</text><rect width="30" height="25" x="65" y="135" fill="#7ED321" stroke="#5FA319" stroke-width="1.5" rx="2"/><text x="80" y="152" fill="#fff" font-size="9" font-weight="bold" text-anchor="middle">T0</text><rect width="30" height="25" x="100" y="135" fill="#7ED321" stroke="#5FA319" stroke-width="1.5" rx="2"/><text x="115" y="152" fill="#fff" font-size="9" font-weight="bold" text-anchor="middle">T1</text><rect width="30" height="25" x="135" y="135" fill="#7ED321" stroke="#5FA319" stroke-width="1.5" rx="2"/><text x="150" y="152" fill="#fff" font-size="9" font-weight="bold" text-anchor="middle">T2</text><rect width="30" height="25" x="170" y="135" fill="#7ED321" stroke="#5FA319" stroke-width="1.5" rx="2"/><text x="185" y="152" fill="#fff" font-size="9" font-weight="bold" text-anchor="middle">T3</text><rect width="30" height="25" x="65" y="165" fill="#7ED321" stroke="#5FA319" stroke-width="1.5" rx="2"/><text x="80" y="182" fill="#fff" font-size="9" font-weight="bold" text-anchor="middle">T4</text><rect width="30" height="25" x="100" y="165" fill="#7ED321" stroke="#5FA319" stroke-width="1.5" rx="2"/><text x="115" y="182" fill="#fff" font-size="9" font-weight="bold" text-anchor="middle">T5</text><rect width="30" height="25" x="135" y="165" fill="#7ED321" stroke="#5FA319" stroke-width="1.5" rx="2"/><text x="150" y="182" fill="#fff" font-size="9" font-weight="bold" text-anchor="middle">T6</text><rect width="30" height="25" x="170" y="165" fill="#7ED321" stroke="#5FA319" stroke-width="1.5" rx="2"/><text x="185" y="182" fill="#fff" font-size="9" font-weight="bold" text-anchor="middle">T7</text><text x="130" y="205" fill="#666" font-size="16" text-anchor="middle">$\vdots$</text></g><g id="block1"><rect width="160" height="120" x="230" y="100" fill="#E8F4FD" stroke="#2E5C8A" stroke-width="2" rx="5"/><text x="310" y="125" fill="#2E5C8A" font-size="14" font-weight="bold" text-anchor="middle">Block (1,0)</text><rect width="30" height="25" x="245" y="135" fill="#7ED321" stroke="#5FA319" stroke-width="1.5" rx="2"/><text x="260" y="152" fill="#fff" font-size="9" font-weight="bold" text-anchor="middle">T0</text><rect width="30" height="25" x="280" y="135" fill="#7ED321" stroke="#5FA319" stroke-width="1.5" rx="2"/><text x="295" y="152" fill="#fff" font-size="9" font-weight="bold" text-anchor="middle">T1</text><rect width="30" height="25" x="315" y="135" fill="#7ED321" stroke="#5FA319" stroke-width="1.5" rx="2"/><text x="330" y="152" fill="#fff" font-size="9" font-weight="bold" text-anchor="middle">T2</text><rect width="30" height="25" x="350" y="135" fill="#7ED321" stroke="#5FA319" stroke-width="1.5" rx="2"/><text x="365" y="152" fill="#fff" font-size="9" font-weight="bold" text-anchor="middle">T3</text><rect width="30" height="25" x="245" y="165" fill="#7ED321" stroke="#5FA319" stroke-width="1.5" rx="2"/><text x="260" y="182" fill="#fff" font-size="9" font-weight="bold" text-anchor="middle">T4</text><rect width="30" height="25" x="280" y="165" fill="#7ED321" stroke="#5FA319" stroke-width="1.5" rx="2"/><text x="295" y="182" fill="#fff" font-size="9" font-weight="bold" text-anchor="middle">T5</text><rect width="30" height="25" x="315" y="165" fill="#7ED321" stroke="#5FA319" stroke-width="1.5" rx="2"/><text x="330" y="182" fill="#fff" font-size="9" font-weight="bold" text-anchor="middle">T6</text><rect width="30" height="25" x="350" y="165" fill="#7ED321" stroke="#5FA319" stroke-width="1.5" rx="2"/><text x="365" y="182" fill="#fff" font-size="9" font-weight="bold" text-anchor="middle">T7</text><text x="310" y="205" fill="#666" font-size="16" text-anchor="middle">$\vdots$</text></g><g id="block2"><rect width="160" height="120" x="50" y="235" fill="#E8F4FD" stroke="#2E5C8A" stroke-width="2" rx="5"/><text x="130" y="260" fill="#2E5C8A" font-size="14" font-weight="bold" text-anchor="middle">Block (0,1)</text><rect width="30" height="25" x="65" y="270" fill="#7ED321" stroke="#5FA319" stroke-width="1.5" rx="2"/><text x="80" y="287" fill="#fff" font-size="9" font-weight="bold" text-anchor="middle">T0</text><rect width="30" height="25" x="100" y="270" fill="#7ED321" stroke="#5FA319" stroke-width="1.5" rx="2"/><text x="115" y="287" fill="#fff" font-size="9" font-weight="bold" text-anchor="middle">T1</text><rect width="30" height="25" x="135" y="270" fill="#7ED321" stroke="#5FA319" stroke-width="1.5" rx="2"/><text x="150" y="287" fill="#fff" font-size="9" font-weight="bold" text-anchor="middle">T2</text><rect width="30" height="25" x="170" y="270" fill="#7ED321" stroke="#5FA319" stroke-width="1.5" rx="2"/><text x="185" y="287" fill="#fff" font-size="9" font-weight="bold" text-anchor="middle">T3</text><rect width="30" height="25" x="65" y="300" fill="#7ED321" stroke="#5FA319" stroke-width="1.5" rx="2"/><rect width="30" height="25" x="100" y="300" fill="#7ED321" stroke="#5FA319" stroke-width="1.5" rx="2"/><rect width="30" height="25" x="135" y="300" fill="#7ED321" stroke="#5FA319" stroke-width="1.5" rx="2"/><rect width="30" height="25" x="170" y="300" fill="#7ED321" stroke="#5FA319" stroke-width="1.5" rx="2"/><text x="130" y="345" fill="#666" font-size="16" text-anchor="middle">$\vdots$</text></g><g id="block3"><rect width="160" height="120" x="230" y="235" fill="#E8F4FD" stroke="#2E5C8A" stroke-width="2" rx="5"/><text x="310" y="260" fill="#2E5C8A" font-size="14" font-weight="bold" text-anchor="middle">Block (1,1)</text><rect width="30" height="25" x="245" y="270" fill="#7ED321" stroke="#5FA319" stroke-width="1.5" rx="2"/><rect width="30" height="25" x="280" y="270" fill="#7ED321" stroke="#5FA319" stroke-width="1.5" rx="2"/><rect width="30" height="25" x="315" y="270" fill="#7ED321" stroke="#5FA319" stroke-width="1.5" rx="2"/><rect width="30" height="25" x="350" y="270" fill="#7ED321" stroke="#5FA319" stroke-width="1.5" rx="2"/><text x="310" y="315" fill="#666" font-size="16" text-anchor="middle">$\vdots$</text></g><text x="225" y="395" fill="#2E5C8A" font-size="24" text-anchor="middle">$\vdots$</text><text x="225" y="450" fill="#333" font-family="monospace" font-size="9" text-anchor="middle">idx = blockIdx.x * blockDim.x + threadIdx.x</text></svg>