<svg xmlns="http://www.w3.org/2000/svg" viewBox="0 0 400 700"><g id="gpu"><rect width="280" height="280" x="60" y="390" fill="#F5F5F5" stroke="#333" stroke-width="2" rx="5"/><text x="200" y="420" fill="#333" font-size="16" font-weight="bold" text-anchor="middle">GPU</text><rect width="240" height="30" x="80" y="440" fill="#FF6B6B" stroke="#C92A2A" stroke-width="2" rx="3"/><text x="200" y="460" fill="#fff" font-size="11" font-weight="bold" text-anchor="middle">Simple Control</text><rect width="240" height="30" x="80" y="480" fill="#FFD93D" stroke="#F59F00" stroke-width="2" rx="3"/><text x="200" y="500" fill="#333" font-size="11" font-weight="bold" text-anchor="middle">Small Cache</text><g id="gpu-cores"><rect width="30" height="30" x="80" y="520" fill="#7ED321" stroke="#5FA319" stroke-width="1" rx="2"/><rect width="30" height="30" x="115" y="520" fill="#7ED321" stroke="#5FA319" stroke-width="1" rx="2"/><rect width="30" height="30" x="150" y="520" fill="#7ED321" stroke="#5FA319" stroke-width="1" rx="2"/><rect width="30" height="30" x="185" y="520" fill="#7ED321" stroke="#5FA319" stroke-width="1" rx="2"/><rect width="30" height="30" x="220" y="520" fill="#7ED321" stroke="#5FA319" stroke-width="1" rx="2"/><rect width="30" height="30" x="255" y="520" fill="#7ED321" stroke="#5FA319" stroke-width="1" rx="2"/><rect width="30" height="30" x="290" y="520" fill="#7ED321" stroke="#5FA319" stroke-width="1" rx="2"/><rect width="30" height="30" x="80" y="555" fill="#7ED321" stroke="#5FA319" stroke-width="1" rx="2"/><rect width="30" height="30" x="115" y="555" fill="#7ED321" stroke="#5FA319" stroke-width="1" rx="2"/><rect width="30" height="30" x="150" y="555" fill="#7ED321" stroke="#5FA319" stroke-width="1" rx="2"/><rect width="30" height="30" x="185" y="555" fill="#7ED321" stroke="#5FA319" stroke-width="1" rx="2"/><rect width="30" height="30" x="220" y="555" fill="#7ED321" stroke="#5FA319" stroke-width="1" rx="2"/><rect width="30" height="30" x="255" y="555" fill="#7ED321" stroke="#5FA319" stroke-width="1" rx="2"/><rect width="30" height="30" x="290" y="555" fill="#7ED321" stroke="#5FA319" stroke-width="1" rx="2"/><rect width="30" height="30" x="80" y="590" fill="#7ED321" stroke="#5FA319" stroke-width="1" rx="2"/><rect width="30" height="30" x="115" y="590" fill="#7ED321" stroke="#5FA319" stroke-width="1" rx="2"/><rect width="30" height="30" x="150" y="590" fill="#7ED321" stroke="#5FA319" stroke-width="1" rx="2"/><rect width="30" height="30" x="185" y="590" fill="#7ED321" stroke="#5FA319" stroke-width="1" rx="2"/><rect width="30" height="30" x="220" y="590" fill="#7ED321" stroke="#5FA319" stroke-width="1" rx="2"/><rect width="30" height="30" x="255" y="590" fill="#7ED321" stroke="#5FA319" stroke-width="1" rx="2"/><rect width="30" height="30" x="290" y="590" fill="#7ED321" stroke="#5FA319" stroke-width="1" rx="2"/><rect width="30" height="30" x="80" y="625" fill="#7ED321" stroke="#5FA319" stroke-width="1" rx="2"/><rect width="30" height="30" x="115" y="625" fill="#7ED321" stroke="#5FA319" stroke-width="1" rx="2"/><rect width="30" height="30" x="150" y="625" fill="#7ED321" stroke="#5FA319" stroke-width="1" rx="2"/><rect width="30" height="30" x="185" y="625" fill="#7ED321" stroke="#5FA319" stroke-width="1" rx="2"/><rect width="30" height="30" x="220" y="625" fill="#7ED321" stroke="#5FA319" stroke-width="1" rx="2"/><rect width="30" height="30" x="255" y="625" fill="#7ED321" stroke="#5FA319" stroke-width="1" rx="2"/><rect width="30" height="30" x="290" y="625" fill="#7ED321" stroke="#5FA319" stroke-width="1" rx="2"/></g></g><text x="200" y="685" fill="#333" font-size="13" font-weight="bold" text-anchor="middle">Thousands of simple cores</text></svg>